<svg version="1.1" id="Layer_1" xmlns="http://www.w3.org/2000/svg" xmlns:xlink="http://www.w3.org/1999/xlink" x="0px" y="0px"
	 width="100%" viewBox="0 0 512 512" enable-background="new 0 0 512 512" xml:space="preserve">
<path fill="#000000" opacity="1.000000" stroke="none" 
	d="
M291.000000,513.000000 
	C194.023544,513.000000 97.547081,513.000000 1.035313,513.000000 
	C1.035313,342.398529 1.035313,171.797028 1.035313,1.097768 
	C171.559799,1.097768 342.119690,1.097768 512.839783,1.097768 
	C512.839783,171.666550 512.839783,342.333252 512.839783,513.000000 
	C439.130341,513.000000 365.315155,513.000000 291.000000,513.000000 
M443.866180,317.013458 
	C454.110413,315.723969 462.657776,311.000092 470.733612,303.777832 
	C473.917297,300.590912 477.681244,297.795288 480.153809,294.128784 
	C484.244751,288.062561 487.503418,281.435089 491.766144,274.681091 
	C496.356537,262.843079 498.530457,250.683746 498.108124,237.886368 
	C497.523102,220.157974 492.296478,204.595963 478.928467,192.467606 
	C467.371643,181.982544 453.722321,179.196701 438.521790,181.770493 
	C427.710297,183.601135 418.988068,189.063919 410.270508,196.209335 
	C401.986664,204.934616 394.462494,214.154526 390.240234,226.331055 
	C386.833313,237.294510 383.833954,248.319366 385.020538,260.899384 
	C385.345459,264.654755 385.331024,268.476654 386.052032,272.154358 
	C389.861938,291.587860 398.997162,307.195770 418.236450,314.994049 
	C426.200684,318.222260 434.529541,319.239166 443.866180,317.013458 
M386.013489,334.188934 
	C386.000000,333.856537 386.078125,333.486786 385.959991,333.197052 
	C373.832825,303.461609 356.608917,277.412903 330.477509,258.103546 
	C318.248718,249.067261 304.967773,241.816299 289.294647,237.809128 
	C278.863647,236.261368 268.432648,234.713593 257.090485,233.021408 
	C249.047592,233.979904 241.004700,234.938385 232.140366,235.983521 
	C225.744431,237.952530 219.348495,239.921539 212.201431,241.999329 
	C205.787689,245.293503 199.373947,248.587677 192.318710,252.172256 
	C184.529587,258.411774 176.740463,264.651306 168.334595,271.163971 
	C159.245300,280.095612 150.947479,289.650238 144.249313,301.246399 
	C138.452591,313.152649 132.655884,325.058929 126.214401,337.345245 
	C125.940674,338.265137 125.631790,339.176178 125.398544,340.106232 
	C122.314926,352.401825 119.241936,364.700104 116.024094,377.855164 
	C116.072929,386.682922 114.841293,395.749695 116.434982,404.289124 
	C119.837601,422.521393 129.191727,437.636047 144.333282,448.826477 
	C160.273300,460.606995 177.854141,463.956268 197.835114,459.015411 
	C203.725372,457.339600 209.571335,455.481934 215.517059,454.033844 
	C222.983688,452.215332 230.532028,450.732361 238.956390,449.012268 
	C241.949081,448.986328 244.943405,448.884308 247.934158,448.948608 
	C257.398712,449.152100 266.885620,449.089722 276.317535,449.771515 
	C282.918640,450.248718 289.443848,451.775696 296.699951,453.178589 
	C303.446686,455.281281 310.083099,457.898224 316.964233,459.374603 
	C329.473083,462.058350 342.031097,462.597504 354.853607,456.982513 
	C364.171509,453.156891 372.566925,448.008392 379.669403,439.828247 
	C383.652924,433.796967 387.636444,427.765686 391.965027,421.081482 
	C393.921082,413.720062 395.877106,406.358643 398.234619,398.238129 
	C400.084106,389.696320 398.799774,381.328461 396.974518,372.173553 
	C396.315369,368.861603 395.932220,365.464783 394.944611,362.253845 
	C392.133514,353.114777 389.076080,344.051422 386.013489,334.188934 
M270.021759,144.840042 
	C270.680298,149.336548 271.158569,153.868225 272.028046,158.323563 
	C276.164886,179.521652 284.495148,198.493652 302.385925,211.768051 
	C315.802521,221.722733 330.801178,224.823456 347.876221,220.002258 
	C351.327454,218.654617 355.190643,217.894318 358.137451,215.827484 
	C363.079376,212.361267 367.437561,208.062759 372.756165,204.005249 
	C373.930023,202.743866 375.164246,201.532928 376.267944,200.212845 
	C383.445953,191.627533 388.537415,181.971802 391.783813,170.656387 
	C395.400238,156.990402 398.158936,143.241043 395.976105,128.112579 
	C395.651245,125.033348 395.490814,121.926292 394.975098,118.879356 
	C391.296661,97.146011 383.249847,77.666962 365.202759,63.772976 
	C351.665405,53.350918 336.537201,49.975292 319.108398,54.991165 
	C318.007141,55.209164 316.828003,55.243927 315.816681,55.673595 
	C306.078796,59.810837 297.595276,65.683121 290.264313,74.259796 
	C282.860657,84.169868 277.523560,95.096130 274.017303,107.805115 
	C270.851959,119.668938 269.418640,131.717056 270.021759,144.840042 
M163.191772,55.982967 
	C151.104889,60.370171 141.434036,67.734200 134.256241,79.230858 
	C125.728958,91.887711 120.328239,105.696472 118.169456,121.440834 
	C117.779427,127.352409 116.692734,133.319748 117.160515,139.162643 
	C117.885956,148.223907 119.122505,157.324509 121.128365,166.185211 
	C124.605637,181.545746 131.634369,195.392380 143.039734,206.339355 
	C156.676300,219.427841 173.152100,225.329727 191.962967,220.770096 
	C198.314011,219.230667 204.031479,215.077423 210.747696,212.001358 
	C212.965378,210.365448 215.401062,208.954727 217.363235,207.054932 
	C226.152145,198.545486 232.674622,188.521088 236.988556,176.223648 
	C241.890961,162.916672 244.440887,149.219070 243.974686,134.116943 
	C243.318649,128.785629 242.825241,123.428337 241.978195,118.127556 
	C238.480438,96.239120 229.999557,76.907799 211.705872,63.344486 
	C197.272614,52.643372 181.259262,49.468864 163.191772,55.982967 
M101.755577,311.999817 
	C114.417206,304.819580 121.936287,293.770264 126.196053,279.288208 
	C129.971420,267.787842 129.554428,256.108795 128.066940,244.286484 
	C125.919273,227.217148 118.677101,212.437149 107.273788,199.985077 
	C94.570572,186.113480 78.537117,178.878815 59.380257,181.125473 
	C50.073265,182.216965 41.545826,185.885437 34.280861,193.214386 
	C24.256386,202.679764 18.470177,214.267090 16.176802,228.454208 
	C16.788691,239.439072 16.009411,250.723480 18.296852,261.347595 
	C23.338659,284.764404 35.971691,303.400909 58.418739,313.611389 
	C72.594566,320.059479 87.115166,320.461395 101.755577,311.999817 
z"/>
<path fill="#FD6727" opacity="1.000000" stroke="none" 
	d="
M144.880905,300.961090 
	C150.947479,289.650238 159.245300,280.095612 168.792969,271.339203 
	C170.784500,273.459869 172.138321,275.584412 173.876785,277.324768 
	C232.434723,335.945251 291.027313,394.531128 349.630310,453.106598 
	C351.033752,454.509430 352.612701,455.736694 354.109833,457.045837 
	C342.031097,462.597504 329.473083,462.058350 316.964233,459.374603 
	C310.083099,457.898224 303.446686,455.281281 296.270203,452.683350 
	C294.472107,450.537231 293.226593,448.763580 291.717590,447.253174 
	C244.973572,400.465576 198.207504,353.699982 151.425674,306.950195 
	C149.335938,304.861908 147.066605,302.953339 144.880905,300.961090 
z"/>
<path fill="#FD7028" opacity="1.000000" stroke="none" 
	d="
M354.481720,457.014160 
	C352.612701,455.736694 351.033752,454.509430 349.630310,453.106598 
	C291.027313,394.531128 232.434723,335.945251 173.876785,277.324768 
	C172.138321,275.584412 170.784500,273.459869 169.101349,271.202637 
	C176.740463,264.651306 184.529587,258.411774 192.714630,252.369720 
	C194.555664,254.360077 195.849442,256.304199 197.467819,257.923981 
	C256.429840,316.938019 315.424286,375.919678 374.398132,434.921906 
	C376.037415,436.561981 377.500671,438.377960 379.046021,440.111938 
	C372.566925,448.008392 364.171509,453.156891 354.481720,457.014160 
z"/>
<path fill="#FD5C25" opacity="1.000000" stroke="none" 
	d="
M144.565109,301.103760 
	C147.066605,302.953339 149.335938,304.861908 151.425674,306.950195 
	C198.207504,353.699982 244.973572,400.465576 291.717590,447.253174 
	C293.226593,448.763580 294.472107,450.537231 295.921692,452.510986 
	C289.443848,451.775696 282.918640,450.248718 276.317535,449.771515 
	C266.885620,449.089722 257.398712,449.152100 247.934158,448.948608 
	C244.943405,448.884308 241.949081,448.986328 238.428207,448.706238 
	C236.527710,446.361389 235.443787,444.035126 233.740509,442.326111 
	C199.779144,408.250854 165.755554,374.237640 131.694077,340.262451 
	C130.336670,338.908508 128.482101,338.052948 126.859177,336.965179 
	C132.655884,325.058929 138.452591,313.152649 144.565109,301.103760 
z"/>
<path fill="#FD7729" opacity="1.000000" stroke="none" 
	d="
M379.357727,439.970093 
	C377.500671,438.377960 376.037415,436.561981 374.398132,434.921906 
	C315.424286,375.919678 256.429840,316.938019 197.467819,257.923981 
	C195.849442,256.304199 194.555664,254.360077 193.035385,252.224503 
	C199.373947,248.587677 205.787689,245.293503 212.749680,242.237457 
	C214.772018,244.057083 216.199356,245.685349 217.726944,247.213379 
	C273.909424,303.411957 330.104187,359.598267 386.278778,415.804718 
	C388.156769,417.683777 389.843872,419.753571 391.619934,421.734436 
	C387.636444,427.765686 383.652924,433.796967 379.357727,439.970093 
z"/>
<path fill="#FE852B" opacity="1.000000" stroke="none" 
	d="
M236.830399,176.988113 
	C232.674622,188.521088 226.152145,198.545486 217.363235,207.054932 
	C215.401062,208.954727 212.965378,210.365448 210.318192,211.717361 
	C208.798981,209.995468 207.860046,208.407135 206.597397,207.141815 
	C178.998962,179.485352 151.375717,151.853577 123.703537,124.270927 
	C122.345749,122.917542 120.499962,122.053734 118.881416,120.961952 
	C120.328239,105.696472 125.728958,91.887711 134.866180,79.264267 
	C136.939072,80.653412 138.448349,81.962776 139.858139,83.371704 
	C169.537491,113.032959 199.172012,142.739304 228.947632,172.303558 
	C231.051529,174.392517 234.178925,175.450653 236.830399,176.988113 
z"/>
<path fill="#FC5124" opacity="1.000000" stroke="none" 
	d="
M126.536789,337.155212 
	C128.482101,338.052948 130.336670,338.908508 131.694077,340.262451 
	C165.755554,374.237640 199.779144,408.250854 233.740509,442.326111 
	C235.443787,444.035126 236.527710,446.361389 237.972565,448.752380 
	C230.532028,450.732361 222.983688,452.215332 215.517059,454.033844 
	C209.571335,455.481934 203.725372,457.339600 197.408630,458.702759 
	C195.966293,456.738495 195.225235,454.813354 193.893829,453.475830 
	C169.497879,428.968506 145.040924,404.521790 120.551163,380.108154 
	C119.299683,378.860565 117.637344,378.025085 116.166290,376.997742 
	C119.241936,364.700104 122.314926,352.401825 125.398544,340.106232 
	C125.631790,339.176178 125.940674,338.265137 126.536789,337.155212 
z"/>
<path fill="#FEA62F" opacity="1.000000" stroke="none" 
	d="
M274.166870,106.996208 
	C277.523560,95.096130 282.860657,84.169868 290.916260,74.184799 
	C293.360016,75.554420 295.301392,76.849182 296.921448,78.465897 
	C326.488190,107.971748 356.004150,137.528473 385.586243,167.018906 
	C387.181366,168.609085 389.262268,169.711975 391.117035,171.041718 
	C388.537415,181.971802 383.445953,191.627533 376.267944,200.212845 
	C375.164246,201.532928 373.930023,202.743866 372.323059,203.717560 
	C370.916077,202.109543 370.092499,200.639145 368.946320,199.490768 
	C339.449646,169.938675 309.938385,140.401016 280.345245,110.945656 
	C278.652466,109.260773 276.242859,108.296082 274.166870,106.996208 
z"/>
<path fill="#FD5B25" opacity="1.000000" stroke="none" 
	d="
M125.833847,279.996277 
	C121.936287,293.770264 114.417206,304.819580 101.229362,311.758606 
	C98.593697,308.969971 96.670143,306.237396 94.346016,303.903778 
	C71.265961,280.728912 48.143009,257.596527 24.957790,234.526932 
	C22.510956,232.092316 19.587950,230.136246 16.885859,227.958160 
	C18.470177,214.267090 24.256386,202.679764 34.898365,193.232651 
	C37.578445,194.901855 39.817196,196.376083 41.677063,198.230347 
	C67.712395,224.187271 93.674675,250.217499 119.742157,276.141998 
	C121.405403,277.796112 123.786629,278.728271 125.833847,279.996277 
z"/>
<path fill="#FE912C" opacity="1.000000" stroke="none" 
	d="
M236.909485,176.605881 
	C234.178925,175.450653 231.051529,174.392517 228.947632,172.303558 
	C199.172012,142.739304 169.537491,113.032959 139.858139,83.371704 
	C138.448349,81.962776 136.939072,80.653412 135.183655,79.124969 
	C141.434036,67.734200 151.104889,60.370171 163.744797,56.229401 
	C164.602127,56.871574 164.866577,57.307133 165.216431,57.657375 
	C190.179672,82.647926 215.141876,107.639557 240.147385,132.587769 
	C241.164795,133.602875 242.595673,134.203537 243.833923,134.997299 
	C244.440887,149.219070 241.890961,162.916672 236.909485,176.605881 
z"/>
<path fill="#FD7D2A" opacity="1.000000" stroke="none" 
	d="
M391.792480,421.407959 
	C389.843872,419.753571 388.156769,417.683777 386.278778,415.804718 
	C330.104187,359.598267 273.909424,303.411957 217.726944,247.213379 
	C216.199356,245.685349 214.772018,244.057083 213.125244,242.183060 
	C219.348495,239.921539 225.744431,237.952530 232.725067,236.234543 
	C235.643295,238.593872 238.075455,240.603592 240.295837,242.824997 
	C291.706390,294.258850 343.090240,345.719421 394.517426,397.136658 
	C395.380249,397.999268 396.717377,398.387573 397.833130,398.997223 
	C395.877106,406.358643 393.921082,413.720062 391.792480,421.407959 
z"/>
<path fill="#FD6727" opacity="1.000000" stroke="none" 
	d="
M126.014954,279.642242 
	C123.786629,278.728271 121.405403,277.796112 119.742157,276.141998 
	C93.674675,250.217499 67.712395,224.187271 41.677063,198.230347 
	C39.817196,196.376083 37.578445,194.901855 35.204369,193.100525 
	C41.545826,185.885437 50.073265,182.216965 59.380257,181.125473 
	C78.537117,178.878815 94.570572,186.113480 107.273788,199.985077 
	C118.677101,212.437149 125.919273,227.217148 128.066940,244.286484 
	C129.554428,256.108795 129.971420,267.787842 126.014954,279.642242 
z"/>
<path fill="#FFB030" opacity="1.000000" stroke="none" 
	d="
M391.450439,170.849045 
	C389.262268,169.711975 387.181366,168.609085 385.586243,167.018906 
	C356.004150,137.528473 326.488190,107.971748 296.921448,78.465897 
	C295.301392,76.849182 293.360016,75.554420 291.225769,74.034027 
	C297.595276,65.683121 306.078796,59.810837 315.816681,55.673595 
	C316.828003,55.243927 318.007141,55.209164 319.749969,55.197731 
	C321.133392,56.301197 321.808044,57.265247 322.626923,58.085220 
	C345.443604,80.932228 368.257477,103.782166 391.153290,126.549637 
	C392.345673,127.735313 394.256866,128.198105 395.833405,128.997437 
	C398.158936,143.241043 395.400238,156.990402 391.450439,170.849045 
z"/>
<path fill="#FEA62F" opacity="1.000000" stroke="none" 
	d="
M390.903076,225.955811 
	C394.462494,214.154526 401.986664,204.934616 410.920258,196.157990 
	C416.063019,200.253891 420.706970,204.250381 425.023621,208.573715 
	C447.099762,230.684128 469.091492,252.878860 491.112762,275.044098 
	C487.503418,281.435089 484.244751,288.062561 480.153809,294.128784 
	C477.681244,297.795288 473.917297,300.590912 470.127502,303.740051 
	C468.062439,302.349487 466.557770,301.042419 465.151276,299.637115 
	C442.005280,276.510162 418.876801,253.365631 395.723328,230.246170 
	C394.203705,228.728775 392.513794,227.381973 390.903076,225.955811 
z"/>
<path fill="#FD7A29" opacity="1.000000" stroke="none" 
	d="
M118.525436,121.201393 
	C120.499962,122.053734 122.345749,122.917542 123.703537,124.270927 
	C151.375717,151.853577 178.998962,179.485352 206.597397,207.141815 
	C207.860046,208.407135 208.798981,209.995468 209.963593,211.776047 
	C204.031479,215.077423 198.314011,219.230667 191.962967,220.770096 
	C173.152100,225.329727 156.676300,219.427841 143.039734,206.339355 
	C131.634369,195.392380 124.605637,181.545746 121.128365,166.185211 
	C119.122505,157.324509 117.885956,148.223907 117.160515,139.162643 
	C116.692734,133.319748 117.779427,127.352409 118.525436,121.201393 
z"/>
<path fill="#FFB030" opacity="1.000000" stroke="none" 
	d="
M491.439453,274.862610 
	C469.091492,252.878860 447.099762,230.684128 425.023621,208.573715 
	C420.706970,204.250381 416.063019,200.253891 411.228394,196.028534 
	C418.988068,189.063919 427.710297,183.601135 438.521790,181.770493 
	C453.722321,179.196701 467.371643,181.982544 478.928467,192.467606 
	C492.296478,204.595963 497.523102,220.157974 498.108124,237.886368 
	C498.530457,250.683746 496.356537,262.843079 491.439453,274.862610 
z"/>
<path fill="#FE822A" opacity="1.000000" stroke="none" 
	d="
M398.033875,398.617676 
	C396.717377,398.387573 395.380249,397.999268 394.517426,397.136658 
	C343.090240,345.719421 291.706390,294.258850 240.295837,242.824997 
	C238.075455,240.603592 235.643295,238.593872 233.135803,236.191223 
	C241.004700,234.938385 249.047592,233.979904 257.627686,233.420929 
	C259.937531,236.207779 261.444122,238.860443 263.521942,240.943314 
	C306.328888,283.854401 349.194763,326.706757 392.088043,369.531616 
	C393.458008,370.899414 395.242340,371.852203 396.833527,372.998474 
	C398.799774,381.328461 400.084106,389.696320 398.033875,398.617676 
z"/>
<path fill="#FE9C2E" opacity="1.000000" stroke="none" 
	d="
M274.092102,107.400665 
	C276.242859,108.296082 278.652466,109.260773 280.345245,110.945656 
	C309.938385,140.401016 339.449646,169.938675 368.946320,199.490768 
	C370.092499,200.639145 370.916077,202.109543 371.965668,203.772186 
	C367.437561,208.062759 363.079376,212.361267 358.137451,215.827484 
	C355.190643,217.894318 351.327454,218.654617 347.240112,219.796356 
	C345.631134,218.456726 344.727783,217.253525 343.675049,216.199524 
	C320.535217,193.031952 297.388184,169.871536 274.197418,146.755005 
	C273.063812,145.625031 271.519501,144.907059 270.166443,143.997238 
	C269.418640,131.717056 270.851959,119.668938 274.092102,107.400665 
z"/>
<path fill="#FE872B" opacity="1.000000" stroke="none" 
	d="
M396.904022,372.585999 
	C395.242340,371.852203 393.458008,370.899414 392.088043,369.531616 
	C349.194763,326.706757 306.328888,283.854401 263.521942,240.943314 
	C261.444122,238.860443 259.937531,236.207779 258.083282,233.493134 
	C268.432648,234.713593 278.863647,236.261368 289.672241,238.344666 
	C291.271118,240.990662 292.108215,243.483185 293.770721,245.154800 
	C322.647888,274.190308 351.607941,303.143555 380.639130,332.025055 
	C382.045441,333.424164 384.271332,333.999390 386.115570,334.958282 
	C389.076080,344.051422 392.133514,353.114777 394.944611,362.253845 
	C395.932220,365.464783 396.315369,368.861603 396.904022,372.585999 
z"/>
<path fill="#FC5124" opacity="1.000000" stroke="none" 
	d="
M16.531330,228.206177 
	C19.587950,230.136246 22.510956,232.092316 24.957790,234.526932 
	C48.143009,257.596527 71.265961,280.728912 94.346016,303.903778 
	C96.670143,306.237396 98.593697,308.969971 100.874435,311.813934 
	C87.115166,320.461395 72.594566,320.059479 58.418739,313.611389 
	C35.971691,303.400909 23.338659,284.764404 18.296852,261.347595 
	C16.009411,250.723480 16.788691,239.439072 16.531330,228.206177 
z"/>
<path fill="#FE9C2E" opacity="1.000000" stroke="none" 
	d="
M390.571655,226.143433 
	C392.513794,227.381973 394.203705,228.728775 395.723328,230.246170 
	C418.876801,253.365631 442.005280,276.510162 465.151276,299.637115 
	C466.557770,301.042419 468.062439,302.349487 469.813171,303.875854 
	C462.657776,311.000092 454.110413,315.723969 443.377502,316.723206 
	C442.150787,315.348785 441.562408,314.115509 440.652679,313.202484 
	C423.755096,296.244141 406.842407,279.300507 389.841522,262.445984 
	C388.647583,261.262268 386.741730,260.796631 385.166931,259.997101 
	C383.833954,248.319366 386.833313,237.294510 390.571655,226.143433 
z"/>
<path fill="#FC4823" opacity="1.000000" stroke="none" 
	d="
M116.095184,377.426453 
	C117.637344,378.025085 119.299683,378.860565 120.551163,380.108154 
	C145.040924,404.521790 169.497879,428.968506 193.893829,453.475830 
	C195.225235,454.813354 195.966293,456.738495 197.009537,458.758484 
	C177.854141,463.956268 160.273300,460.606995 144.333282,448.826477 
	C129.191727,437.636047 119.837601,422.521393 116.434982,404.289124 
	C114.841293,395.749695 116.072929,386.682922 116.095184,377.426453 
z"/>
<path fill="#FE992D" opacity="1.000000" stroke="none" 
	d="
M243.904297,134.557129 
	C242.595673,134.203537 241.164795,133.602875 240.147385,132.587769 
	C215.141876,107.639557 190.179672,82.647926 165.216431,57.657375 
	C164.866577,57.307133 164.602127,56.871574 164.125000,56.183426 
	C181.259262,49.468864 197.272614,52.643372 211.705872,63.344486 
	C229.999557,76.907799 238.480438,96.239120 241.978195,118.127556 
	C242.825241,123.428337 243.318649,128.785629 243.904297,134.557129 
z"/>
<path fill="#FE952D" opacity="1.000000" stroke="none" 
	d="
M270.094116,144.418640 
	C271.519501,144.907059 273.063812,145.625031 274.197418,146.755005 
	C297.388184,169.871536 320.535217,193.031952 343.675049,216.199524 
	C344.727783,217.253525 345.631134,218.456726 346.852539,219.817261 
	C330.801178,224.823456 315.802521,221.722733 302.385925,211.768051 
	C284.495148,198.493652 276.164886,179.521652 272.028046,158.323563 
	C271.158569,153.868225 270.680298,149.336548 270.094116,144.418640 
z"/>
<path fill="#FFB831" opacity="1.000000" stroke="none" 
	d="
M395.904755,128.555008 
	C394.256866,128.198105 392.345673,127.735313 391.153290,126.549637 
	C368.257477,103.782166 345.443604,80.932228 322.626923,58.085220 
	C321.808044,57.265247 321.133392,56.301197 320.142273,55.177704 
	C336.537201,49.975292 351.665405,53.350918 365.202759,63.772976 
	C383.249847,77.666962 391.296661,97.146011 394.975098,118.879356 
	C395.490814,121.926292 395.651245,125.033348 395.904755,128.555008 
z"/>
<path fill="#FE8C2C" opacity="1.000000" stroke="none" 
	d="
M386.064514,334.573608 
	C384.271332,333.999390 382.045441,333.424164 380.639130,332.025055 
	C351.607941,303.143555 322.647888,274.190308 293.770721,245.154800 
	C292.108215,243.483185 291.271118,240.990662 290.025513,238.523422 
	C304.967773,241.816299 318.248718,249.067261 330.477509,258.103546 
	C356.608917,277.412903 373.832825,303.461609 385.959991,333.197052 
	C386.078125,333.486786 386.000000,333.856537 386.064514,334.573608 
z"/>
<path fill="#FE952D" opacity="1.000000" stroke="none" 
	d="
M385.093750,260.448242 
	C386.741730,260.796631 388.647583,261.262268 389.841522,262.445984 
	C406.842407,279.300507 423.755096,296.244141 440.652679,313.202484 
	C441.562408,314.115509 442.150787,315.348785 442.963745,316.775574 
	C434.529541,319.239166 426.200684,318.222260 418.236450,314.994049 
	C398.997162,307.195770 389.861938,291.587860 386.052032,272.154358 
	C385.331024,268.476654 385.345459,264.654755 385.093750,260.448242 
z"/>
</svg>