<svg version="1.1" id="Layer_1" xmlns="http://www.w3.org/2000/svg" xmlns:xlink="http://www.w3.org/1999/xlink" x="0px" y="0px"
	 width="100%" viewBox="0 0 400 255" enable-background="new 0 0 400 255" xml:space="preserve">
<path fill="#000000" opacity="1.000000" stroke="none" 
	d="
M271.000000,256.000000 
	C207.645767,256.000000 144.291550,256.000000 80.456085,255.750610 
	C79.974854,255.501236 79.833344,255.022308 79.904297,254.557068 
	C79.927940,245.722015 79.880646,237.352203 79.861511,228.728271 
	C79.599838,228.371643 79.310013,228.269150 78.555054,228.095703 
	C64.163094,228.024765 50.236263,228.024765 36.313721,228.024765 
	C36.313721,161.360168 36.313721,95.328217 36.313721,28.833340 
	C50.756084,28.833340 64.886848,28.833340 79.271736,28.861504 
	C79.628365,28.599844 79.730858,28.310019 79.904297,27.555073 
	C79.927940,18.720375 79.880638,10.350797 79.904099,1.740855 
	C79.983246,1.333661 79.991623,1.166831 80.000000,1.000000 
	C143.354233,1.000000 206.708450,1.000000 270.531342,1.468657 
	C270.944458,13.291491 270.888916,24.645668 270.375336,35.999863 
	C225.676239,35.999882 181.435181,35.999882 137.246307,35.999882 
	C137.246307,98.682869 137.246307,160.612427 137.246307,223.000168 
	C181.938522,223.000168 226.385956,223.000168 270.910767,223.463135 
	C270.992126,234.617401 270.996063,245.308701 271.000000,256.000000 
z"/>
<path fill="#FFFFFF" opacity="1.000000" stroke="none" 
	d="
M270.833374,35.999844 
	C270.888916,24.645668 270.944458,13.291491 271.000000,1.468657 
	C287.687561,1.000000 304.375122,1.000000 321.531372,1.468656 
	C322.055084,10.959272 322.110138,19.981234 322.088501,29.467440 
	C322.007874,89.471420 321.998840,149.011154 322.007324,208.550888 
	C322.008240,215.032852 322.110107,221.514801 322.095032,228.460922 
	C322.016602,237.950058 322.008301,246.975021 322.000000,256.000000 
	C305.312439,256.000000 288.624878,256.000000 271.468658,256.000000 
	C270.996063,245.308701 270.992126,234.617401 270.985870,223.000153 
	C270.989044,169.856903 271.003082,117.639580 270.992340,65.422256 
	C270.990326,55.614777 270.888947,45.807316 270.833374,35.999844 
z"/>
<path fill="#F97316" opacity="1.000000" stroke="none" 
	d="
M322.165161,29.003193 
	C322.110138,19.981234 322.055084,10.959272 322.000000,1.468656 
	C348.305420,1.000000 374.610840,1.000000 400.958130,1.000000 
	C400.958130,85.881966 400.958130,170.763962 400.958130,256.000000 
	C374.980164,256.000000 348.958740,256.000000 322.468658,256.000000 
	C322.008301,246.975021 322.016602,237.950058 322.552429,228.462036 
	C337.329956,227.998978 351.579956,227.998978 365.761993,227.998978 
	C365.761993,161.321136 365.761993,95.384560 365.761993,29.527573 
	C365.240692,29.309591 364.950317,29.082479 364.659363,29.081688 
	C350.494659,29.043253 336.329895,29.024307 322.165161,29.003193 
z"/>
<path fill="#F97316" opacity="1.000000" stroke="none" 
	d="
M79.017609,28.833340 
	C64.886848,28.833340 50.756084,28.833340 36.313721,28.833340 
	C36.313721,95.328217 36.313721,161.360168 36.313721,228.024765 
	C50.236263,228.024765 64.163094,228.024765 78.646683,228.271225 
	C79.366386,228.736313 79.576355,228.891220 79.833344,228.982407 
	C79.880646,237.352203 79.927940,245.722015 79.715248,254.672272 
	C79.226723,255.455032 79.074974,255.704132 79.000000,256.000000 
	C53.645771,256.000000 28.291544,256.000000 2.360744,255.780640 
	C1.584730,255.287659 1.323339,255.100571 1.000000,255.000000 
	C1.000000,170.979111 1.000000,86.958206 1.219358,2.360744 
	C1.712344,1.584728 1.899438,1.323337 2.000000,1.000000 
	C27.354227,1.000000 52.708454,1.000000 78.616501,1.204803 
	C79.329796,1.671507 79.550804,1.862044 79.833344,1.981218 
	C79.880638,10.350797 79.927940,18.720375 79.728775,27.646687 
	C79.263695,28.366388 79.108795,28.576361 79.017609,28.833340 
z"/>
<path fill="#F97316" opacity="1.000000" stroke="none" 
	d="
M1.500000,1.000000 
	C1.899438,1.323337 1.712344,1.584728 1.219358,1.892087 
	C1.000000,1.666667 1.000000,1.333333 1.500000,1.000000 
z"/>
<path fill="#F97316" opacity="1.000000" stroke="none" 
	d="
M79.904099,1.740855 
	C79.550804,1.862044 79.329796,1.671507 79.085159,1.204803 
	C79.000000,1.000000 79.500000,1.000000 79.750000,1.000000 
	C79.991623,1.166831 79.983246,1.333661 79.904099,1.740855 
z"/>
<path fill="#F97316" opacity="1.000000" stroke="none" 
	d="
M1.000000,255.500000 
	C1.323339,255.100571 1.584730,255.287659 1.892087,255.780640 
	C1.666667,256.000000 1.333333,256.000000 1.000000,255.500000 
z"/>
<path fill="#F97316" opacity="1.000000" stroke="none" 
	d="
M79.250000,256.000000 
	C79.074974,255.704132 79.226723,255.455032 79.644302,255.137512 
	C79.833344,255.022308 79.974854,255.501236 79.987427,255.750610 
	C80.000000,256.000000 79.500000,256.000000 79.250000,256.000000 
z"/>
<path fill="#00FF00" opacity="1.000000" stroke="none" 
	d="
M270.375366,35.999863 
	C270.888947,45.807316 270.990326,55.614777 270.992340,65.422256 
	C271.003082,117.639580 270.989044,169.856903 270.908447,222.537201 
	C226.385956,223.000168 181.938522,223.000168 137.246307,223.000168 
	C137.246307,160.612427 137.246307,98.682869 137.246307,35.999882 
	C181.435181,35.999882 225.676239,35.999882 270.375366,35.999863 
z"/>
<path fill="#F97316" opacity="1.000000" stroke="none" 
	d="
M79.271736,28.861504 
	C79.108795,28.576361 79.263695,28.366388 79.657822,28.111805 
	C79.730858,28.310019 79.628365,28.599844 79.271736,28.861504 
z"/>
<path fill="#F97316" opacity="1.000000" stroke="none" 
	d="
M79.861511,228.728271 
	C79.576355,228.891220 79.366386,228.736313 79.111801,228.342163 
	C79.310013,228.269150 79.599838,228.371643 79.861511,228.728271 
z"/>
<path fill="#000000" opacity="1.000000" stroke="none" 
	d="
M322.088470,29.467440 
	C336.329895,29.024307 350.494659,29.043253 364.659363,29.081688 
	C364.950317,29.082479 365.240692,29.309591 365.761993,29.527573 
	C365.761993,95.384560 365.761993,161.321136 365.761993,227.998978 
	C351.579956,227.998978 337.329956,227.998978 322.622559,227.997864 
	C322.110107,221.514801 322.008240,215.032852 322.007324,208.550888 
	C321.998840,149.011154 322.007874,89.471420 322.088470,29.467440 
z"/>
</svg>