<svg version="1.1" id="Layer_1" xmlns="http://www.w3.org/2000/svg" xmlns:xlink="http://www.w3.org/1999/xlink" x="0px" y="0px"
	 width="100%" viewBox="0 0 1401 271" enable-background="new 0 0 1401 271" xml:space="preserve">
<path fill="#000000" opacity="1.000000" stroke="none" 
	d="
M74.000000,1.000001 
	C492.032715,1.000000 910.065430,1.000000 1328.885254,1.224569 
	C1323.664429,7.942820 1317.656250,14.436502 1311.477417,21.114822 
	C1344.348755,52.101074 1365.074585,89.251907 1365.202515,136.701981 
	C1365.331055,184.379242 1344.133545,221.447861 1310.497681,252.792984 
	C1316.507202,258.520996 1321.924927,263.617432 1327.238892,268.820038 
	C1328.068481,269.632263 1328.424805,270.927856 1329.000000,272.000000 
	C910.967285,272.000000 492.934540,272.000000 74.114708,271.775452 
	C79.335442,265.057190 85.343277,258.563477 91.263687,252.164291 
	C87.911270,248.386139 84.179848,243.968033 80.223724,239.761215 
	C67.020653,225.721497 55.829494,210.310455 48.236614,192.512650 
	C42.952080,180.125656 39.962776,167.064423 39.123482,153.675140 
	C38.497726,143.692520 38.175167,133.552887 39.212086,123.639511 
	C40.461418,111.695457 42.057178,99.520149 45.708298,88.153305 
	C52.286560,67.673546 64.462509,50.206779 79.034904,34.436424 
	C83.473366,29.633089 87.771568,24.700146 92.428871,19.497149 
	C88.690239,16.252012 85.037941,13.404283 81.782486,10.158529 
	C78.955116,7.339588 76.576782,4.070275 74.000000,1.000001 
M610.933472,170.950119 
	C610.635254,170.187393 610.138550,169.442474 610.068237,168.659302 
	C608.778442,154.288330 601.008057,144.441116 588.428467,138.210159 
	C583.252197,135.646225 577.710449,133.819992 572.311462,131.648773 
	C592.198608,123.789925 606.149109,110.734573 602.033447,83.093796 
	C600.296875,71.431000 594.826050,62.445984 584.868530,55.906895 
	C572.239380,47.613365 558.005676,44.721512 543.471191,44.191254 
	C522.833862,43.438347 502.148590,43.994446 481.483826,44.012569 
	C480.055450,44.013821 478.627167,44.192333 477.239075,44.285702 
	C477.239075,106.657700 477.239075,168.589340 477.239075,231.000000 
	C479.257599,231.000000 481.044678,231.000000 482.831757,231.000000 
	C500.996796,231.000000 519.165588,230.775589 537.325500,231.079544 
	C549.263062,231.279358 561.037354,230.391678 572.419678,226.898178 
	C584.782349,223.103821 595.724609,217.237198 603.192200,205.755402 
	C610.042053,195.223358 611.101013,183.782394 610.933472,170.950119 
M938.000610,205.509628 
	C933.328247,190.458633 928.716370,175.388519 923.966187,160.362122 
	C919.410339,145.950500 914.588196,131.622437 910.102356,117.189476 
	C902.542480,92.866043 895.155945,68.488739 887.655823,44.001320 
	C872.867432,44.001320 858.381897,43.918175 843.901001,44.139530 
	C842.562805,44.159988 840.527100,45.864635 840.054626,47.219467 
	C837.702454,53.964066 835.818481,60.870152 833.672546,67.688812 
	C824.892517,95.586365 816.054810,123.465752 807.281250,151.365326 
	C799.384216,176.477875 791.538940,201.606735 783.690247,226.734467 
	C783.312012,227.945572 783.120850,229.215164 782.722473,230.993729 
	C795.359375,230.993729 807.497559,231.098877 819.627075,230.823120 
	C820.778137,230.796936 822.476196,228.554565 822.902222,227.052353 
	C826.480042,214.436615 829.820007,201.753418 833.255371,189.001999 
	C852.849182,189.001999 872.000305,189.050186 891.150696,188.952087 
	C894.159912,188.936676 894.454346,190.761856 895.030823,192.931732 
	C898.397217,205.603729 901.866455,218.248398 905.272095,230.795837 
	C918.962463,230.795837 932.204529,230.795837 945.911377,230.795837 
	C943.235107,222.426132 940.660278,214.373566 938.000610,205.509628 
M405.494751,264.000000 
	C410.252563,264.000000 415.010406,264.000000 419.602936,264.000000 
	C419.602936,254.244461 419.602936,245.187012 419.602936,235.803467 
	C404.936279,235.803467 390.664551,235.803467 376.303711,235.803467 
	C376.303711,169.417847 376.303711,103.374695 376.303711,36.813396 
	C390.994415,36.813396 405.386658,36.813396 419.595947,36.813396 
	C419.595947,27.233702 419.595947,18.176992 419.595947,9.272092 
	C393.258301,9.272092 367.325470,9.272092 341.301300,9.272092 
	C341.301300,94.250809 341.301300,178.957123 341.301300,264.000000 
	C362.566101,264.000000 383.531097,264.000000 405.494751,264.000000 
M991.574463,236.000000 
	C989.143555,236.000000 986.712646,236.000000 984.373535,236.000000 
	C984.373535,245.706528 984.373535,254.763123 984.373535,263.756836 
	C1010.681396,263.756836 1036.614990,263.756836 1062.725342,263.756836 
	C1062.725342,178.805756 1062.725342,94.097992 1062.725342,9.320950 
	C1036.398315,9.320950 1010.346985,9.320950 984.371643,9.320950 
	C984.371643,18.702673 984.371643,27.759201 984.371643,37.146065 
	C999.012329,37.146065 1013.284363,37.146065 1027.719604,37.146065 
	C1027.719604,103.532982 1027.719604,169.577240 1027.719604,236.000000 
	C1015.813721,236.000000 1004.184204,236.000000 991.574463,236.000000 
M1170.000122,203.423538 
	C1170.656860,208.448044 1171.237793,213.483856 1171.984863,218.494904 
	C1174.107056,232.729919 1170.919312,237.679504 1156.823364,240.998383 
	C1152.753174,241.956726 1148.475464,242.034531 1144.350586,242.509384 
	C1144.350586,251.347427 1144.350586,260.073792 1144.350586,268.764618 
	C1156.569458,269.637512 1174.030640,267.014557 1185.216919,262.910583 
	C1199.280396,257.751068 1208.469971,242.950012 1206.992920,228.077271 
	C1206.328491,221.388367 1205.747559,214.689850 1204.977173,208.013184 
	C1204.096680,200.382614 1202.676636,192.795074 1202.189697,185.144379 
	C1201.803101,179.069595 1201.474976,172.679596 1202.923584,166.879883 
	C1204.659912,159.928909 1210.665161,155.941940 1217.494751,154.334198 
	C1224.859741,152.600403 1232.420288,151.696991 1239.730225,150.459305 
	C1239.730225,140.571182 1239.730225,130.971283 1239.730225,122.159035 
	C1231.320923,120.720352 1223.153809,119.938370 1215.355591,117.806679 
	C1208.310425,115.880852 1202.606445,111.077133 1202.179321,103.252930 
	C1201.728516,94.990318 1202.302979,86.611694 1203.125610,78.353104 
	C1204.515503,64.401199 1207.486328,50.580894 1206.010132,36.429863 
	C1205.331665,29.926807 1203.070435,24.061125 1198.674194,19.235130 
	C1191.883301,11.780484 1182.817505,8.712893 1173.286499,6.661590 
	C1163.668457,4.591590 1153.998657,3.425128 1144.000000,4.281699 
	C1144.000000,11.585923 1144.293823,18.427475 1143.900879,25.229355 
	C1143.619995,30.092102 1145.906738,30.674212 1149.988037,31.167046 
	C1155.376099,31.817719 1160.834839,33.128944 1165.859131,35.157085 
	C1169.947998,36.807610 1172.448120,40.417301 1172.029785,45.429646 
	C1171.249878,54.776623 1170.818726,64.154907 1169.918701,73.488953 
	C1169.197632,80.967476 1167.558105,88.374222 1167.122559,95.859184 
	C1166.597412,104.879807 1167.073975,113.810371 1172.869141,121.648285 
	C1178.050903,128.656525 1185.368408,131.699432 1193.238647,134.130295 
	C1194.600952,134.551071 1195.729248,135.729904 1196.965576,136.558563 
	C1195.790039,137.120331 1194.653442,137.790375 1193.433228,138.227661 
	C1175.575684,144.627823 1166.365356,152.096619 1167.113647,174.140915 
	C1167.435059,183.615677 1169.000000,193.048248 1170.000122,203.423538 
M213.554428,260.037018 
	C227.993576,267.758392 243.666580,268.773773 259.708771,269.045044 
	C259.708771,259.774200 259.708771,251.046280 259.708771,242.830643 
	C253.725540,241.844284 247.990280,241.377365 242.535233,239.885696 
	C234.635773,237.725586 231.880371,233.669174 232.045502,225.543732 
	C232.149139,220.443329 232.595825,215.342728 233.063461,210.258286 
	C234.325623,196.535950 236.266541,182.845963 236.824585,169.097931 
	C237.317719,156.949158 232.124619,147.279312 220.406693,142.131226 
	C215.777512,140.097473 211.041367,138.307251 205.968170,136.249695 
	C207.014603,135.723785 207.677643,135.229858 208.418335,135.041809 
	C227.070023,130.306381 237.751801,120.394753 236.940567,99.528618 
	C236.640961,91.822189 235.791473,84.128311 234.960083,76.453918 
	C234.150513,68.980972 233.303848,61.494465 232.003174,54.096600 
	C230.239563,44.065731 232.352783,37.151520 239.707153,34.268295 
	C244.449280,32.409191 249.806290,32.166443 254.821655,30.931044 
	C256.636749,30.483950 259.697266,29.326920 259.744049,28.373766 
	C260.140015,20.308832 259.970154,12.216114 259.970154,4.060576 
	C245.539001,3.688416 232.118027,5.127620 219.208725,10.027662 
	C206.366486,14.902251 197.438553,25.225288 198.011841,40.299889 
	C198.275482,47.232197 198.452393,54.178322 199.054092,61.084599 
	C199.806900,69.725578 201.058044,78.322136 201.894867,86.957176 
	C202.368393,91.843323 203.417389,96.957176 202.509567,101.639313 
	C200.021072,114.473969 195.421631,116.471085 181.599670,119.855980 
	C175.973129,121.233879 169.959137,121.029655 164.234299,121.535301 
	C164.234299,131.401001 164.234299,141.023666 164.234299,150.897461 
	C168.001953,151.278702 171.583115,151.525742 175.127350,152.031448 
	C178.822952,152.558746 182.512695,153.204025 186.152893,154.027985 
	C196.405731,156.348679 203.532654,164.887375 202.949783,174.430649 
	C202.520020,181.466812 201.558411,188.468750 200.991486,195.498657 
	C199.933777,208.614502 198.258957,221.737991 198.230621,234.861328 
	C198.207764,245.443176 202.786530,254.475052 213.554428,260.037018 
M700.813232,17.010180 
	C699.228088,17.357058 697.618103,17.617788 696.061890,18.065178 
	C687.592468,20.499882 681.314697,25.817318 679.469543,34.358040 
	C677.747314,42.329655 678.363342,50.508915 685.185425,56.708439 
	C686.839905,58.211941 688.159912,59.390224 687.201416,62.449688 
	C685.072937,69.243225 683.923401,76.341034 682.320862,83.302376 
	C680.470947,91.338371 678.563110,99.361023 676.567932,107.869095 
	C684.552795,107.869095 691.838135,107.869095 699.123535,107.869095 
	C701.650818,102.814751 704.177002,97.759850 706.706482,92.706627 
	C707.072266,91.976013 707.484131,91.267174 707.823608,90.524872 
	C713.643738,77.799034 720.313110,65.380394 725.068298,52.267773 
	C732.166199,32.694740 721.321106,17.093035 700.813232,17.010180 
z"/>
<path fill="#4F46E5" opacity="1.000000" stroke="none" 
	d="
M73.571533,1.000001 
	C76.576782,4.070275 78.955116,7.339588 81.782486,10.158529 
	C85.037941,13.404283 88.690239,16.252012 92.428871,19.497149 
	C87.771568,24.700146 83.473366,29.633089 79.034904,34.436424 
	C64.462509,50.206779 52.286560,67.673546 45.708298,88.153305 
	C42.057178,99.520149 40.461418,111.695457 39.212086,123.639511 
	C38.175167,133.552887 38.497726,143.692520 39.123482,153.675140 
	C39.962776,167.064423 42.952080,180.125656 48.236614,192.512650 
	C55.829494,210.310455 67.020653,225.721497 80.223724,239.761215 
	C84.179848,243.968033 87.911270,248.386139 91.263687,252.164291 
	C85.343277,258.563477 79.335442,265.057190 73.663803,271.775452 
	C72.285645,272.000000 70.571281,272.000000 68.420593,271.646759 
	C66.864601,269.904663 65.840729,268.423828 64.609993,267.141602 
	C55.387115,257.532562 45.609390,248.401459 36.978642,238.289993 
	C18.551418,216.701370 6.691931,191.907089 2.904891,163.524597 
	C2.827162,162.942062 1.659289,162.504959 0.999997,162.000000 
	C1.000000,145.312439 1.000000,128.624878 1.332472,111.757988 
	C2.445520,108.405853 3.013359,105.162086 4.043840,102.072639 
	C8.294051,89.330238 11.416389,76.010811 17.296906,64.056320 
	C28.334318,41.618404 44.673054,22.993811 63.669865,6.724955 
	C65.445351,5.204428 66.572060,2.926348 68.000000,1.000000 
	C69.714355,1.000000 71.428719,1.000000 73.571533,1.000001 
z"/>
<path fill="#4F46E5" opacity="1.000000" stroke="none" 
	d="
M1329.428467,272.000000 
	C1328.424805,270.927856 1328.068481,269.632263 1327.238892,268.820038 
	C1321.924927,263.617432 1316.507202,258.520996 1310.497681,252.792984 
	C1344.133545,221.447861 1365.331055,184.379242 1365.202515,136.701981 
	C1365.074585,89.251907 1344.348755,52.101074 1311.477417,21.114822 
	C1317.656250,14.436502 1323.664429,7.942820 1329.336182,1.224569 
	C1330.714355,1.000000 1332.428711,1.000000 1334.235107,1.226553 
	C1337.216431,4.131649 1340.300293,6.631015 1342.959839,9.520790 
	C1352.570312,19.962736 1362.618530,30.074476 1371.431396,41.161476 
	C1386.941040,60.672855 1396.191162,83.138550 1400.076782,107.795647 
	C1400.205200,108.611206 1401.336304,109.268799 1402.000000,110.000008 
	C1402.000000,127.354225 1402.000000,144.708450 1401.736572,162.199829 
	C1400.651001,164.877319 1399.821533,167.415375 1399.007935,169.958466 
	C1395.157837,181.991989 1392.568359,194.635284 1387.116699,205.892807 
	C1381.494019,217.503326 1373.768433,228.306747 1365.701416,238.460999 
	C1358.067993,248.069336 1348.758301,256.339752 1340.276978,265.285034 
	C1338.326782,267.342041 1336.749023,269.752289 1335.000000,272.000000 
	C1333.285645,272.000000 1331.571289,272.000000 1329.428467,272.000000 
z"/>
<path fill="#000000" opacity="1.000000" stroke="none" 
	d="
M0.999997,162.468658 
	C1.659289,162.504959 2.827162,162.942062 2.904891,163.524597 
	C6.691931,191.907089 18.551418,216.701370 36.978642,238.289993 
	C45.609390,248.401459 55.387115,257.532562 64.609993,267.141602 
	C65.840729,268.423828 66.864601,269.904663 67.992134,271.646759 
	C45.722000,272.000000 23.444002,272.000000 1.000000,272.000000 
	C1.000000,235.645935 1.000000,199.291626 0.999997,162.468658 
z"/>
<path fill="#000000" opacity="1.000000" stroke="none" 
	d="
M67.531342,1.000000 
	C66.572060,2.926348 65.445351,5.204428 63.669865,6.724955 
	C44.673054,22.993811 28.334318,41.618404 17.296906,64.056320 
	C11.416389,76.010811 8.294051,89.330238 4.043840,102.072639 
	C3.013359,105.162086 2.445520,108.405853 1.332472,111.289330 
	C1.000000,74.424179 1.000000,37.848351 1.000000,1.000000 
	C23.020145,1.000000 45.041412,1.000000 67.531342,1.000000 
z"/>
<path fill="#000000" opacity="1.000000" stroke="none" 
	d="
M1335.468628,272.000000 
	C1336.749023,269.752289 1338.326782,267.342041 1340.276978,265.285034 
	C1348.758301,256.339752 1358.067993,248.069336 1365.701416,238.460999 
	C1373.768433,228.306747 1381.494019,217.503326 1387.116699,205.892807 
	C1392.568359,194.635284 1395.157837,181.991989 1399.007935,169.958466 
	C1399.821533,167.415375 1400.651001,164.877319 1401.736572,162.668488 
	C1402.000000,199.242813 1402.000000,235.485611 1402.000000,272.000000 
	C1379.979858,272.000000 1357.958496,272.000000 1335.468628,272.000000 
z"/>
<path fill="#000000" opacity="1.000000" stroke="none" 
	d="
M1402.000000,109.531349 
	C1401.336304,109.268799 1400.205200,108.611206 1400.076782,107.795647 
	C1396.191162,83.138550 1386.941040,60.672855 1371.431396,41.161476 
	C1362.618530,30.074476 1352.570312,19.962736 1342.959839,9.520790 
	C1340.300293,6.631015 1337.216431,4.131649 1334.663574,1.226553 
	C1357.277710,1.000000 1379.555298,1.000000 1402.000000,1.000000 
	C1402.000000,37.020721 1402.000000,73.041702 1402.000000,109.531349 
z"/>
<path fill="#7C07E9" opacity="1.000000" stroke="none" 
	d="
M610.961304,171.409653 
	C611.101013,183.782394 610.042053,195.223358 603.192200,205.755402 
	C595.724609,217.237198 584.782349,223.103821 572.419678,226.898178 
	C561.037354,230.391678 549.263062,231.279358 537.325500,231.079544 
	C519.165588,230.775589 500.996796,231.000000 482.831757,231.000000 
	C481.044678,231.000000 479.257599,231.000000 477.239075,231.000000 
	C477.239075,168.589340 477.239075,106.657700 477.239075,44.285702 
	C478.627167,44.192333 480.055450,44.013821 481.483826,44.012569 
	C502.148590,43.994446 522.833862,43.438347 543.471191,44.191254 
	C558.005676,44.721512 572.239380,47.613365 584.868530,55.906895 
	C594.826050,62.445984 600.296875,71.431000 602.033447,83.093796 
	C606.149109,110.734573 592.198608,123.789925 572.311462,131.648773 
	C577.710449,133.819992 583.252197,135.646225 588.428467,138.210159 
	C601.008057,144.441116 608.778442,154.288330 610.068237,168.659302 
	C610.138550,169.442474 610.635254,170.187393 610.961304,171.409653 
M541.922668,202.572678 
	C543.209717,202.381592 544.491516,202.139557 545.784546,202.007431 
	C556.207642,200.942459 565.522522,197.593765 569.329895,186.891312 
	C571.030396,182.111237 570.841736,176.547195 570.929260,171.329178 
	C571.097168,161.317673 564.969360,153.300568 555.459717,149.975800 
	C542.301086,145.375305 528.790344,147.457901 515.331177,147.029984 
	C515.331177,165.958557 515.331177,184.333237 515.331177,202.930054 
	C524.128906,202.930054 532.597717,202.930054 541.922668,202.572678 
M564.000000,93.661377 
	C564.715393,83.703369 556.755615,75.450981 549.698120,74.270004 
	C538.453491,72.388359 526.943481,72.092911 515.435547,71.117348 
	C515.435547,87.768936 515.435547,103.032326 515.435547,119.348335 
	C523.339661,119.559143 531.559937,120.540833 539.631348,119.830193 
	C555.019592,118.475342 564.281128,112.773170 564.000000,93.661377 
z"/>
<path fill="#7C07E9" opacity="1.000000" stroke="none" 
	d="
M938.043030,205.915314 
	C940.660278,214.373566 943.235107,222.426132 945.911377,230.795837 
	C932.204529,230.795837 918.962463,230.795837 905.272095,230.795837 
	C901.866455,218.248398 898.397217,205.603729 895.030823,192.931732 
	C894.454346,190.761856 894.159912,188.936676 891.150696,188.952087 
	C872.000305,189.050186 852.849182,189.001999 833.255371,189.001999 
	C829.820007,201.753418 826.480042,214.436615 822.902222,227.052353 
	C822.476196,228.554565 820.778137,230.796936 819.627075,230.823120 
	C807.497559,231.098877 795.359375,230.993729 782.722473,230.993729 
	C783.120850,229.215164 783.312012,227.945572 783.690247,226.734467 
	C791.538940,201.606735 799.384216,176.477875 807.281250,151.365326 
	C816.054810,123.465752 824.892517,95.586365 833.672546,67.688812 
	C835.818481,60.870152 837.702454,53.964066 840.054626,47.219467 
	C840.527100,45.864635 842.562805,44.159988 843.901001,44.139530 
	C858.381897,43.918175 872.867432,44.001320 887.655823,44.001320 
	C895.155945,68.488739 902.542480,92.866043 910.102356,117.189476 
	C914.588196,131.622437 919.410339,145.950500 923.966187,160.362122 
	C928.716370,175.388519 933.328247,190.458633 938.043030,205.915314 
M851.010132,119.619659 
	C847.489136,132.993835 843.968140,146.368011 840.451050,159.727249 
	C855.920654,159.727249 870.865906,159.727249 885.955811,159.727249 
	C885.882019,158.467194 885.994080,157.441528 885.742676,156.514450 
	C878.853455,131.112366 871.932800,105.718765 864.981567,80.333557 
	C864.760681,79.526581 864.163086,78.822739 863.741150,78.070847 
	C863.158264,78.827614 862.283264,79.499870 862.036255,80.353775 
	C858.334106,93.150604 854.714905,105.971390 851.010132,119.619659 
z"/>
<path fill="#F97316" opacity="1.000000" stroke="none" 
	d="
M404.995422,264.000000 
	C383.531097,264.000000 362.566101,264.000000 341.301300,264.000000 
	C341.301300,178.957123 341.301300,94.250809 341.301300,9.272092 
	C367.325470,9.272092 393.258301,9.272092 419.595947,9.272092 
	C419.595947,18.176992 419.595947,27.233702 419.595947,36.813396 
	C405.386658,36.813396 390.994415,36.813396 376.303711,36.813396 
	C376.303711,103.374695 376.303711,169.417847 376.303711,235.803467 
	C390.664551,235.803467 404.936279,235.803467 419.602936,235.803467 
	C419.602936,245.187012 419.602936,254.244461 419.602936,264.000000 
	C415.010406,264.000000 410.252563,264.000000 404.995422,264.000000 
z"/>
<path fill="#F97316" opacity="1.000000" stroke="none" 
	d="
M992.064575,236.000000 
	C1004.184204,236.000000 1015.813721,236.000000 1027.719604,236.000000 
	C1027.719604,169.577240 1027.719604,103.532982 1027.719604,37.146065 
	C1013.284363,37.146065 999.012329,37.146065 984.371643,37.146065 
	C984.371643,27.759201 984.371643,18.702673 984.371643,9.320950 
	C1010.346985,9.320950 1036.398315,9.320950 1062.725342,9.320950 
	C1062.725342,94.097992 1062.725342,178.805756 1062.725342,263.756836 
	C1036.614990,263.756836 1010.681396,263.756836 984.373535,263.756836 
	C984.373535,254.763123 984.373535,245.706528 984.373535,236.000000 
	C986.712646,236.000000 989.143555,236.000000 992.064575,236.000000 
z"/>
<path fill="#A3E635" opacity="1.000000" stroke="none" 
	d="
M1170.000000,202.961761 
	C1169.000000,193.048248 1167.435059,183.615677 1167.113647,174.140915 
	C1166.365356,152.096619 1175.575684,144.627823 1193.433228,138.227661 
	C1194.653442,137.790375 1195.790039,137.120331 1196.965576,136.558578 
	C1195.729248,135.729904 1194.600952,134.551071 1193.238647,134.130295 
	C1185.368408,131.699432 1178.050903,128.656525 1172.869141,121.648285 
	C1167.073975,113.810371 1166.597412,104.879807 1167.122559,95.859184 
	C1167.558105,88.374222 1169.197632,80.967476 1169.918701,73.488953 
	C1170.818726,64.154907 1171.249878,54.776623 1172.029785,45.429646 
	C1172.448120,40.417301 1169.947998,36.807610 1165.859131,35.157085 
	C1160.834839,33.128944 1155.376099,31.817719 1149.988037,31.167046 
	C1145.906738,30.674212 1143.619995,30.092102 1143.900879,25.229355 
	C1144.293823,18.427475 1144.000000,11.585923 1144.000000,4.281699 
	C1153.998657,3.425128 1163.668457,4.591590 1173.286499,6.661590 
	C1182.817505,8.712893 1191.883301,11.780484 1198.674194,19.235130 
	C1203.070435,24.061125 1205.331665,29.926807 1206.010132,36.429863 
	C1207.486328,50.580894 1204.515503,64.401199 1203.125610,78.353104 
	C1202.302979,86.611694 1201.728516,94.990318 1202.179321,103.252930 
	C1202.606445,111.077133 1208.310425,115.880852 1215.355591,117.806679 
	C1223.153809,119.938370 1231.320923,120.720352 1239.730225,122.159035 
	C1239.730225,130.971283 1239.730225,140.571182 1239.730225,150.459305 
	C1232.420288,151.696991 1224.859741,152.600403 1217.494751,154.334198 
	C1210.665161,155.941940 1204.659912,159.928909 1202.923584,166.879883 
	C1201.474976,172.679596 1201.803101,179.069595 1202.189697,185.144379 
	C1202.676636,192.795074 1204.096680,200.382614 1204.977173,208.013184 
	C1205.747559,214.689850 1206.328491,221.388367 1206.992920,228.077271 
	C1208.469971,242.950012 1199.280396,257.751068 1185.216919,262.910583 
	C1174.030640,267.014557 1156.569458,269.637512 1144.350586,268.764618 
	C1144.350586,260.073792 1144.350586,251.347427 1144.350586,242.509384 
	C1148.475464,242.034531 1152.753174,241.956726 1156.823364,240.998383 
	C1170.919312,237.679504 1174.107056,232.729919 1171.984863,218.494904 
	C1171.237793,213.483856 1170.656860,208.448044 1170.000000,202.961761 
z"/>
<path fill="#A3E635" opacity="1.000000" stroke="none" 
	d="
M213.277435,259.781464 
	C202.786530,254.475052 198.207764,245.443176 198.230621,234.861328 
	C198.258957,221.737991 199.933777,208.614502 200.991486,195.498657 
	C201.558411,188.468750 202.520020,181.466812 202.949783,174.430649 
	C203.532654,164.887375 196.405731,156.348679 186.152893,154.027985 
	C182.512695,153.204025 178.822952,152.558746 175.127350,152.031448 
	C171.583115,151.525742 168.001953,151.278702 164.234299,150.897461 
	C164.234299,141.023666 164.234299,131.401001 164.234299,121.535301 
	C169.959137,121.029655 175.973129,121.233879 181.599670,119.855980 
	C195.421631,116.471085 200.021072,114.473969 202.509567,101.639313 
	C203.417389,96.957176 202.368393,91.843323 201.894867,86.957176 
	C201.058044,78.322136 199.806900,69.725578 199.054092,61.084599 
	C198.452393,54.178322 198.275482,47.232197 198.011841,40.299889 
	C197.438553,25.225288 206.366486,14.902251 219.208725,10.027662 
	C232.118027,5.127620 245.539001,3.688416 259.970154,4.060576 
	C259.970154,12.216114 260.140015,20.308832 259.744049,28.373766 
	C259.697266,29.326920 256.636749,30.483950 254.821655,30.931044 
	C249.806290,32.166443 244.449280,32.409191 239.707153,34.268295 
	C232.352783,37.151520 230.239563,44.065731 232.003174,54.096600 
	C233.303848,61.494465 234.150513,68.980972 234.960083,76.453918 
	C235.791473,84.128311 236.640961,91.822189 236.940567,99.528618 
	C237.751801,120.394753 227.070023,130.306381 208.418335,135.041809 
	C207.677643,135.229858 207.014603,135.723785 205.968170,136.249695 
	C211.041367,138.307251 215.777512,140.097473 220.406693,142.131226 
	C232.124619,147.279312 237.317719,156.949158 236.824585,169.097931 
	C236.266541,182.845963 234.325623,196.535950 233.063461,210.258286 
	C232.595825,215.342728 232.149139,220.443329 232.045502,225.543732 
	C231.880371,233.669174 234.635773,237.725586 242.535233,239.885696 
	C247.990280,241.377365 253.725540,241.844284 259.708771,242.830643 
	C259.708771,251.046280 259.708771,259.774200 259.708771,269.045044 
	C243.666580,268.773773 227.993576,267.758392 213.277435,259.781464 
z"/>
<path fill="#7C07E9" opacity="1.000000" stroke="none" 
	d="
M701.252014,17.005924 
	C721.321106,17.093035 732.166199,32.694740 725.068298,52.267773 
	C720.313110,65.380394 713.643738,77.799034 707.823608,90.524872 
	C707.484131,91.267174 707.072266,91.976013 706.706482,92.706627 
	C704.177002,97.759850 701.650818,102.814751 699.123535,107.869095 
	C691.838135,107.869095 684.552795,107.869095 676.567932,107.869095 
	C678.563110,99.361023 680.470947,91.338371 682.320862,83.302376 
	C683.923401,76.341034 685.072937,69.243225 687.201416,62.449688 
	C688.159912,59.390224 686.839905,58.211941 685.185425,56.708439 
	C678.363342,50.508915 677.747314,42.329655 679.469543,34.358040 
	C681.314697,25.817318 687.592468,20.499882 696.061890,18.065178 
	C697.618103,17.617788 699.228088,17.357058 701.252014,17.005924 
z"/>
<path fill="#000000" opacity="1.000000" stroke="none" 
	d="
M541.494629,202.751373 
	C532.597717,202.930054 524.128906,202.930054 515.331177,202.930054 
	C515.331177,184.333237 515.331177,165.958557 515.331177,147.029984 
	C528.790344,147.457901 542.301086,145.375305 555.459717,149.975800 
	C564.969360,153.300568 571.097168,161.317673 570.929260,171.329178 
	C570.841736,176.547195 571.030396,182.111237 569.329895,186.891312 
	C565.522522,197.593765 556.207642,200.942459 545.784546,202.007431 
	C544.491516,202.139557 543.209717,202.381592 541.494629,202.751373 
z"/>
<path fill="#000000" opacity="1.000000" stroke="none" 
	d="
M564.000000,94.121819 
	C564.281128,112.773170 555.019592,118.475342 539.631348,119.830193 
	C531.559937,120.540833 523.339661,119.559143 515.435547,119.348335 
	C515.435547,103.032326 515.435547,87.768936 515.435547,71.117348 
	C526.943481,72.092911 538.453491,72.388359 549.698120,74.270004 
	C556.755615,75.450981 564.715393,83.703369 564.000000,94.121819 
z"/>
<path fill="#000000" opacity="1.000000" stroke="none" 
	d="
M851.043152,119.203094 
	C854.714905,105.971390 858.334106,93.150604 862.036255,80.353775 
	C862.283264,79.499870 863.158264,78.827614 863.741089,78.070831 
	C864.163086,78.822739 864.760681,79.526581 864.981567,80.333557 
	C871.932800,105.718765 878.853455,131.112366 885.742676,156.514450 
	C885.994080,157.441528 885.882019,158.467194 885.955811,159.727249 
	C870.865906,159.727249 855.920654,159.727249 840.451050,159.727249 
	C843.968140,146.368011 847.489136,132.993835 851.043152,119.203094 
z"/>
</svg>